<mxfile host="app.diagrams.net" modified="2023-09-21T02:48:49.366Z" agent="Mozilla/5.0 (Windows NT 10.0; Win64; x64) AppleWebKit/537.36 (KHTML, like Gecko) Chrome/113.0.0.0 Safari/537.36" etag="aPa80QC_0pxdCmnZFN41" version="21.7.1" type="github">
  <diagram name="第 1 页" id="4HU5hoyHUDPmbO6uAjSz">
    <mxGraphModel dx="2304" dy="4549" grid="1" gridSize="10" guides="1" tooltips="1" connect="1" arrows="1" fold="1" page="1" pageScale="1" pageWidth="2339" pageHeight="3300" math="0" shadow="0">
      <root>
        <mxCell id="0" />
        <mxCell id="1" parent="0" />
        <mxCell id="sMzdsqoYVpJZI5a0lB-9-35" value="DiffuseIndirectComposite&amp;nbsp;" style="swimlane;fontStyle=0;childLayout=stackLayout;horizontal=1;startSize=30;horizontalStack=0;resizeParent=1;resizeParentMax=0;resizeLast=0;collapsible=1;marginBottom=0;whiteSpace=wrap;html=1;" vertex="1" parent="1">
          <mxGeometry x="1890" y="360" width="290" height="390" as="geometry" />
        </mxCell>
        <mxCell id="sMzdsqoYVpJZI5a0lB-9-36" value="SceneDepthZ" style="text;strokeColor=none;fillColor=none;align=left;verticalAlign=middle;spacingLeft=4;spacingRight=4;overflow=hidden;points=[[0,0.5],[1,0.5]];portConstraint=eastwest;rotatable=0;whiteSpace=wrap;html=1;" vertex="1" parent="sMzdsqoYVpJZI5a0lB-9-35">
          <mxGeometry y="30" width="290" height="30" as="geometry" />
        </mxCell>
        <mxCell id="sMzdsqoYVpJZI5a0lB-9-37" value="GBufferA" style="text;strokeColor=none;fillColor=none;align=left;verticalAlign=middle;spacingLeft=4;spacingRight=4;overflow=hidden;points=[[0,0.5],[1,0.5]];portConstraint=eastwest;rotatable=0;whiteSpace=wrap;html=1;" vertex="1" parent="sMzdsqoYVpJZI5a0lB-9-35">
          <mxGeometry y="60" width="290" height="30" as="geometry" />
        </mxCell>
        <mxCell id="sMzdsqoYVpJZI5a0lB-9-38" value="GBufferB" style="text;strokeColor=none;fillColor=none;align=left;verticalAlign=middle;spacingLeft=4;spacingRight=4;overflow=hidden;points=[[0,0.5],[1,0.5]];portConstraint=eastwest;rotatable=0;whiteSpace=wrap;html=1;" vertex="1" parent="sMzdsqoYVpJZI5a0lB-9-35">
          <mxGeometry y="90" width="290" height="30" as="geometry" />
        </mxCell>
        <mxCell id="sMzdsqoYVpJZI5a0lB-9-41" value="GBufferC&amp;nbsp;" style="text;strokeColor=none;fillColor=none;align=left;verticalAlign=middle;spacingLeft=4;spacingRight=4;overflow=hidden;points=[[0,0.5],[1,0.5]];portConstraint=eastwest;rotatable=0;whiteSpace=wrap;html=1;" vertex="1" parent="sMzdsqoYVpJZI5a0lB-9-35">
          <mxGeometry y="120" width="290" height="30" as="geometry" />
        </mxCell>
        <mxCell id="sMzdsqoYVpJZI5a0lB-9-42" value="GBufferD&amp;nbsp;" style="text;strokeColor=none;fillColor=none;align=left;verticalAlign=middle;spacingLeft=4;spacingRight=4;overflow=hidden;points=[[0,0.5],[1,0.5]];portConstraint=eastwest;rotatable=0;whiteSpace=wrap;html=1;" vertex="1" parent="sMzdsqoYVpJZI5a0lB-9-35">
          <mxGeometry y="150" width="290" height="30" as="geometry" />
        </mxCell>
        <mxCell id="sMzdsqoYVpJZI5a0lB-9-43" value="PreintegratedGF" style="text;strokeColor=none;fillColor=none;align=left;verticalAlign=middle;spacingLeft=4;spacingRight=4;overflow=hidden;points=[[0,0.5],[1,0.5]];portConstraint=eastwest;rotatable=0;whiteSpace=wrap;html=1;" vertex="1" parent="sMzdsqoYVpJZI5a0lB-9-35">
          <mxGeometry y="180" width="290" height="30" as="geometry" />
        </mxCell>
        <mxCell id="sMzdsqoYVpJZI5a0lB-9-44" value="LumenScreenProbeGather.ScreenBentNormal" style="text;strokeColor=none;fillColor=none;align=left;verticalAlign=middle;spacingLeft=4;spacingRight=4;overflow=hidden;points=[[0,0.5],[1,0.5]];portConstraint=eastwest;rotatable=0;whiteSpace=wrap;html=1;" vertex="1" parent="sMzdsqoYVpJZI5a0lB-9-35">
          <mxGeometry y="210" width="290" height="30" as="geometry" />
        </mxCell>
        <mxCell id="sMzdsqoYVpJZI5a0lB-9-45" value="ColoredTexture" style="text;strokeColor=none;fillColor=none;align=left;verticalAlign=middle;spacingLeft=4;spacingRight=4;overflow=hidden;points=[[0,0.5],[1,0.5]];portConstraint=eastwest;rotatable=0;whiteSpace=wrap;html=1;" vertex="1" parent="sMzdsqoYVpJZI5a0lB-9-35">
          <mxGeometry y="240" width="290" height="30" as="geometry" />
        </mxCell>
        <mxCell id="sMzdsqoYVpJZI5a0lB-9-46" value="LumenScreenProbeGather.Diffuselndirect" style="text;strokeColor=none;fillColor=none;align=left;verticalAlign=middle;spacingLeft=4;spacingRight=4;overflow=hidden;points=[[0,0.5],[1,0.5]];portConstraint=eastwest;rotatable=0;whiteSpace=wrap;html=1;" vertex="1" parent="sMzdsqoYVpJZI5a0lB-9-35">
          <mxGeometry y="270" width="290" height="30" as="geometry" />
        </mxCell>
        <mxCell id="sMzdsqoYVpJZI5a0lB-9-47" value="Lumen.ScreenProbeGather.RoughSpecularlndirect" style="text;strokeColor=none;fillColor=none;align=left;verticalAlign=middle;spacingLeft=4;spacingRight=4;overflow=hidden;points=[[0,0.5],[1,0.5]];portConstraint=eastwest;rotatable=0;whiteSpace=wrap;html=1;" vertex="1" parent="sMzdsqoYVpJZI5a0lB-9-35">
          <mxGeometry y="300" width="290" height="30" as="geometry" />
        </mxCell>
        <mxCell id="sMzdsqoYVpJZI5a0lB-9-48" value="Lumen.Reflections.ResolvedSpecularlndirect" style="text;strokeColor=none;fillColor=none;align=left;verticalAlign=middle;spacingLeft=4;spacingRight=4;overflow=hidden;points=[[0,0.5],[1,0.5]];portConstraint=eastwest;rotatable=0;whiteSpace=wrap;html=1;" vertex="1" parent="sMzdsqoYVpJZI5a0lB-9-35">
          <mxGeometry y="330" width="290" height="30" as="geometry" />
        </mxCell>
        <mxCell id="sMzdsqoYVpJZI5a0lB-9-50" value="&lt;b&gt;SceneColor&lt;/b&gt;" style="text;strokeColor=#b85450;fillColor=#f8cecc;align=left;verticalAlign=middle;spacingLeft=4;spacingRight=4;overflow=hidden;points=[[0,0.5],[1,0.5]];portConstraint=eastwest;rotatable=0;whiteSpace=wrap;html=1;" vertex="1" parent="sMzdsqoYVpJZI5a0lB-9-35">
          <mxGeometry y="360" width="290" height="30" as="geometry" />
        </mxCell>
        <mxCell id="sMzdsqoYVpJZI5a0lB-9-52" value="PrePass&amp;nbsp;DDM_AllOpaque" style="swimlane;fontStyle=0;childLayout=stackLayout;horizontal=1;startSize=30;horizontalStack=0;resizeParent=1;resizeParentMax=0;resizeLast=0;collapsible=1;marginBottom=0;whiteSpace=wrap;html=1;" vertex="1" parent="1">
          <mxGeometry x="700" y="55" width="290" height="150" as="geometry" />
        </mxCell>
        <mxCell id="sMzdsqoYVpJZI5a0lB-9-56" value="GPUScene.PrimitiveData" style="text;align=left;verticalAlign=middle;spacingLeft=4;spacingRight=4;overflow=hidden;points=[[0,0.5],[1,0.5]];portConstraint=eastwest;rotatable=0;whiteSpace=wrap;html=1;" vertex="1" parent="sMzdsqoYVpJZI5a0lB-9-52">
          <mxGeometry y="30" width="290" height="30" as="geometry" />
        </mxCell>
        <mxCell id="sMzdsqoYVpJZI5a0lB-9-57" value="GPUScene.lnstanceSceneData" style="text;align=left;verticalAlign=middle;spacingLeft=4;spacingRight=4;overflow=hidden;points=[[0,0.5],[1,0.5]];portConstraint=eastwest;rotatable=0;whiteSpace=wrap;html=1;" vertex="1" parent="sMzdsqoYVpJZI5a0lB-9-52">
          <mxGeometry y="60" width="290" height="30" as="geometry" />
        </mxCell>
        <mxCell id="sMzdsqoYVpJZI5a0lB-9-58" value="lnstanceCulling.lnstanceldsBuffer" style="text;align=left;verticalAlign=middle;spacingLeft=4;spacingRight=4;overflow=hidden;points=[[0,0.5],[1,0.5]];portConstraint=eastwest;rotatable=0;whiteSpace=wrap;html=1;" vertex="1" parent="sMzdsqoYVpJZI5a0lB-9-52">
          <mxGeometry y="90" width="290" height="30" as="geometry" />
        </mxCell>
        <mxCell id="sMzdsqoYVpJZI5a0lB-9-53" value="SceneDepthZ" style="text;strokeColor=#b85450;fillColor=#f8cecc;align=left;verticalAlign=middle;spacingLeft=4;spacingRight=4;overflow=hidden;points=[[0,0.5],[1,0.5]];portConstraint=eastwest;rotatable=0;whiteSpace=wrap;html=1;" vertex="1" parent="sMzdsqoYVpJZI5a0lB-9-52">
          <mxGeometry y="120" width="290" height="30" as="geometry" />
        </mxCell>
        <mxCell id="sMzdsqoYVpJZI5a0lB-9-60" value="UpdateGPUScene&amp;nbsp;" style="swimlane;fontStyle=0;childLayout=stackLayout;horizontal=1;startSize=30;horizontalStack=0;resizeParent=1;resizeParentMax=0;resizeLast=0;collapsible=1;marginBottom=0;whiteSpace=wrap;html=1;" vertex="1" parent="1">
          <mxGeometry x="290" y="-10" width="290" height="60" as="geometry" />
        </mxCell>
        <mxCell id="sMzdsqoYVpJZI5a0lB-9-63" value="GPUScene.PrimitiveData" style="text;strokeColor=#b85450;fillColor=#f8cecc;align=left;verticalAlign=middle;spacingLeft=4;spacingRight=4;overflow=hidden;points=[[0,0.5],[1,0.5]];portConstraint=eastwest;rotatable=0;whiteSpace=wrap;html=1;" vertex="1" parent="sMzdsqoYVpJZI5a0lB-9-60">
          <mxGeometry y="30" width="290" height="30" as="geometry" />
        </mxCell>
        <mxCell id="sMzdsqoYVpJZI5a0lB-9-69" style="edgeStyle=orthogonalEdgeStyle;rounded=0;orthogonalLoop=1;jettySize=auto;html=1;exitX=1;exitY=0.75;exitDx=0;exitDy=0;entryX=0;entryY=0.5;entryDx=0;entryDy=0;" edge="1" parent="1" source="sMzdsqoYVpJZI5a0lB-9-64" target="sMzdsqoYVpJZI5a0lB-9-57">
          <mxGeometry relative="1" as="geometry" />
        </mxCell>
        <mxCell id="sMzdsqoYVpJZI5a0lB-9-64" value="GPUScene::SetInstancePrimitiveIdCS" style="swimlane;fontStyle=0;childLayout=stackLayout;horizontal=1;startSize=30;horizontalStack=0;resizeParent=1;resizeParentMax=0;resizeLast=0;collapsible=1;marginBottom=0;whiteSpace=wrap;html=1;" vertex="1" parent="1">
          <mxGeometry x="290" y="85" width="290" height="60" as="geometry" />
        </mxCell>
        <mxCell id="sMzdsqoYVpJZI5a0lB-9-65" value="GPUScene.lnstanceSceneData" style="text;strokeColor=#b85450;fillColor=#f8cecc;align=left;verticalAlign=middle;spacingLeft=4;spacingRight=4;overflow=hidden;points=[[0,0.5],[1,0.5]];portConstraint=eastwest;rotatable=0;whiteSpace=wrap;html=1;" vertex="1" parent="sMzdsqoYVpJZI5a0lB-9-64">
          <mxGeometry y="30" width="290" height="30" as="geometry" />
        </mxCell>
        <mxCell id="sMzdsqoYVpJZI5a0lB-9-70" style="edgeStyle=orthogonalEdgeStyle;rounded=0;orthogonalLoop=1;jettySize=auto;html=1;exitX=1;exitY=0.75;exitDx=0;exitDy=0;entryX=0;entryY=0.5;entryDx=0;entryDy=0;" edge="1" parent="1" source="sMzdsqoYVpJZI5a0lB-9-66" target="sMzdsqoYVpJZI5a0lB-9-58">
          <mxGeometry relative="1" as="geometry" />
        </mxCell>
        <mxCell id="sMzdsqoYVpJZI5a0lB-9-66" value="BuildRenderingCommandsDeferred" style="swimlane;fontStyle=0;childLayout=stackLayout;horizontal=1;startSize=30;horizontalStack=0;resizeParent=1;resizeParentMax=0;resizeLast=0;collapsible=1;marginBottom=0;whiteSpace=wrap;html=1;" vertex="1" parent="1">
          <mxGeometry x="290" y="175" width="290" height="60" as="geometry" />
        </mxCell>
        <mxCell id="sMzdsqoYVpJZI5a0lB-9-67" value="lnstanceCulling.lnstanceldsBuffer" style="text;strokeColor=#b85450;fillColor=#f8cecc;align=left;verticalAlign=middle;spacingLeft=4;spacingRight=4;overflow=hidden;points=[[0,0.5],[1,0.5]];portConstraint=eastwest;rotatable=0;whiteSpace=wrap;html=1;" vertex="1" parent="sMzdsqoYVpJZI5a0lB-9-66">
          <mxGeometry y="30" width="290" height="30" as="geometry" />
        </mxCell>
        <mxCell id="sMzdsqoYVpJZI5a0lB-9-68" style="edgeStyle=orthogonalEdgeStyle;rounded=0;orthogonalLoop=1;jettySize=auto;html=1;entryX=0;entryY=0.5;entryDx=0;entryDy=0;" edge="1" parent="1" source="sMzdsqoYVpJZI5a0lB-9-63" target="sMzdsqoYVpJZI5a0lB-9-56">
          <mxGeometry relative="1" as="geometry" />
        </mxCell>
        <mxCell id="sMzdsqoYVpJZI5a0lB-9-71" style="edgeStyle=orthogonalEdgeStyle;rounded=0;orthogonalLoop=1;jettySize=auto;html=1;" edge="1" parent="1" source="sMzdsqoYVpJZI5a0lB-9-53" target="sMzdsqoYVpJZI5a0lB-9-36">
          <mxGeometry relative="1" as="geometry">
            <Array as="points">
              <mxPoint x="1470" y="190" />
              <mxPoint x="1470" y="405" />
            </Array>
          </mxGeometry>
        </mxCell>
        <mxCell id="sMzdsqoYVpJZI5a0lB-9-72" value="GBufferClear &amp;amp; BasePass" style="swimlane;fontStyle=0;childLayout=stackLayout;horizontal=1;startSize=30;horizontalStack=0;resizeParent=1;resizeParentMax=0;resizeLast=0;collapsible=1;marginBottom=0;whiteSpace=wrap;html=1;" vertex="1" parent="1">
          <mxGeometry x="700" y="250" width="290" height="210" as="geometry" />
        </mxCell>
        <mxCell id="sMzdsqoYVpJZI5a0lB-9-73" value="SceneColor" style="text;align=left;verticalAlign=middle;spacingLeft=4;spacingRight=4;overflow=hidden;points=[[0,0.5],[1,0.5]];portConstraint=eastwest;rotatable=0;whiteSpace=wrap;html=1;fillColor=#f8cecc;strokeColor=#b85450;" vertex="1" parent="sMzdsqoYVpJZI5a0lB-9-72">
          <mxGeometry y="30" width="290" height="30" as="geometry" />
        </mxCell>
        <mxCell id="sMzdsqoYVpJZI5a0lB-9-74" value="GBufferA&amp;nbsp;" style="text;align=left;verticalAlign=middle;spacingLeft=4;spacingRight=4;overflow=hidden;points=[[0,0.5],[1,0.5]];portConstraint=eastwest;rotatable=0;whiteSpace=wrap;html=1;fillColor=#f8cecc;strokeColor=#b85450;" vertex="1" parent="sMzdsqoYVpJZI5a0lB-9-72">
          <mxGeometry y="60" width="290" height="30" as="geometry" />
        </mxCell>
        <mxCell id="sMzdsqoYVpJZI5a0lB-9-75" value="GBufferB&amp;nbsp;" style="text;align=left;verticalAlign=middle;spacingLeft=4;spacingRight=4;overflow=hidden;points=[[0,0.5],[1,0.5]];portConstraint=eastwest;rotatable=0;whiteSpace=wrap;html=1;fillColor=#f8cecc;strokeColor=#b85450;" vertex="1" parent="sMzdsqoYVpJZI5a0lB-9-72">
          <mxGeometry y="90" width="290" height="30" as="geometry" />
        </mxCell>
        <mxCell id="sMzdsqoYVpJZI5a0lB-9-76" value="GBufferC&amp;nbsp;" style="text;strokeColor=#b85450;fillColor=#f8cecc;align=left;verticalAlign=middle;spacingLeft=4;spacingRight=4;overflow=hidden;points=[[0,0.5],[1,0.5]];portConstraint=eastwest;rotatable=0;whiteSpace=wrap;html=1;" vertex="1" parent="sMzdsqoYVpJZI5a0lB-9-72">
          <mxGeometry y="120" width="290" height="30" as="geometry" />
        </mxCell>
        <mxCell id="sMzdsqoYVpJZI5a0lB-9-79" value="SceneVelocity" style="text;strokeColor=#b85450;fillColor=#f8cecc;align=left;verticalAlign=middle;spacingLeft=4;spacingRight=4;overflow=hidden;points=[[0,0.5],[1,0.5]];portConstraint=eastwest;rotatable=0;whiteSpace=wrap;html=1;" vertex="1" parent="sMzdsqoYVpJZI5a0lB-9-72">
          <mxGeometry y="150" width="290" height="30" as="geometry" />
        </mxCell>
        <mxCell id="sMzdsqoYVpJZI5a0lB-9-78" value="GBufferD&amp;nbsp;" style="text;strokeColor=#b85450;fillColor=#f8cecc;align=left;verticalAlign=middle;spacingLeft=4;spacingRight=4;overflow=hidden;points=[[0,0.5],[1,0.5]];portConstraint=eastwest;rotatable=0;whiteSpace=wrap;html=1;" vertex="1" parent="sMzdsqoYVpJZI5a0lB-9-72">
          <mxGeometry y="180" width="290" height="30" as="geometry" />
        </mxCell>
        <mxCell id="sMzdsqoYVpJZI5a0lB-9-85" style="edgeStyle=orthogonalEdgeStyle;rounded=0;orthogonalLoop=1;jettySize=auto;html=1;entryX=0;entryY=0.5;entryDx=0;entryDy=0;" edge="1" parent="1" source="sMzdsqoYVpJZI5a0lB-9-74" target="sMzdsqoYVpJZI5a0lB-9-37">
          <mxGeometry relative="1" as="geometry" />
        </mxCell>
        <mxCell id="sMzdsqoYVpJZI5a0lB-9-86" style="edgeStyle=orthogonalEdgeStyle;rounded=0;orthogonalLoop=1;jettySize=auto;html=1;" edge="1" parent="1" source="sMzdsqoYVpJZI5a0lB-9-75" target="sMzdsqoYVpJZI5a0lB-9-38">
          <mxGeometry relative="1" as="geometry">
            <Array as="points">
              <mxPoint x="1430" y="355" />
              <mxPoint x="1430" y="465" />
            </Array>
          </mxGeometry>
        </mxCell>
        <mxCell id="sMzdsqoYVpJZI5a0lB-9-87" style="edgeStyle=orthogonalEdgeStyle;rounded=0;orthogonalLoop=1;jettySize=auto;html=1;entryX=0;entryY=0.5;entryDx=0;entryDy=0;" edge="1" parent="1" source="sMzdsqoYVpJZI5a0lB-9-76" target="sMzdsqoYVpJZI5a0lB-9-41">
          <mxGeometry relative="1" as="geometry">
            <Array as="points">
              <mxPoint x="1420" y="385" />
              <mxPoint x="1420" y="495" />
            </Array>
          </mxGeometry>
        </mxCell>
        <mxCell id="sMzdsqoYVpJZI5a0lB-9-88" style="edgeStyle=orthogonalEdgeStyle;rounded=0;orthogonalLoop=1;jettySize=auto;html=1;entryX=0;entryY=0.5;entryDx=0;entryDy=0;" edge="1" parent="1" source="sMzdsqoYVpJZI5a0lB-9-78" target="sMzdsqoYVpJZI5a0lB-9-42">
          <mxGeometry relative="1" as="geometry">
            <Array as="points">
              <mxPoint x="1410" y="445" />
              <mxPoint x="1410" y="525" />
            </Array>
          </mxGeometry>
        </mxCell>
      </root>
    </mxGraphModel>
  </diagram>
</mxfile>
